<?xml version="1.0" encoding="utf-8"?>
<!-- Generator: Adobe Illustrator 22.1.0, SVG Export Plug-In . SVG Version: 6.00 Build 0)  -->
<svg version="1.1" id="emoji" xmlns="http://www.w3.org/2000/svg" xmlns:xlink="http://www.w3.org/1999/xlink" x="0px" y="0px"
	 viewBox="0 0 72 72" style="enable-background:new 0 0 72 72;" xml:space="preserve">
<style type="text/css">
	.st0{fill:none;stroke:#000000;stroke-width:2;stroke-linecap:round;stroke-linejoin:round;stroke-miterlimit:10;}
	.st1{fill:none;stroke:#000000;stroke-width:1.0762;stroke-miterlimit:10;}
	.st2{fill:none;stroke:#000000;stroke-width:1.1814;stroke-miterlimit:10;}
</style>
<g id="line">
	<circle class="st0" cx="36" cy="36" r="28"/>
	<path class="st0" d="M49.4,11.4c-0.5,0.9-1.6,2.1-2.4,2.6c-1.2,0.7-1.9,0.3-3,1c-1.3,0.8-1.2,1.9-2,2c-0.8,0.1-0.7-2-1-3
		c-0.5-1.5-0.2-1.5-1-2c-1.1-0.7-3.2-1.1-5,0c-0.7,0.4-0.8,0.7-3,4c-1.7,2.5-2.2,3.1-2,4c0.2,0.9,0,1.7,1,2c1.2,0.3,1.4-0.3,2-1
		c1.3-1.5,2.4-3.8,3-4c0.6-0.2,2.1,1.3,2,3c0,1.2-0.9,1.9-2,3c-0.7,0.7-2.9,1.5-6,2c-1.7,0.3-1.4,0.9-2.1,1.6
		c-0.8,1-0.5,2.2-1.3,3.3c-1,1.4-3.5,1.8-3.7,2.7c-0.2,0.8,2,1.4,3,1.4c0.9,0,1.1-0.8,3-2c0.7-0.5,1.8-1.3,2.7-1.3
		c0.5,0,1.8,0.3,2.3,0.7c0.6,0.5-0.2,1.8-0.4,3.2s-2.9,1.9-3.9,2c-1.6,0.3-4.1-0.5-5.6,0.9c-1,1-1.1,1.8-1.2,3.4c0,0.4,0.9,3,2,4
		c1.1,1,2.3-0.8,4,0c1.7,0.9,2.5,2.7,3,4c0.5,1.3,0.2,1.2,1,5c0.4,1.9,0.3,1.1,1,4c0.6,2.4,0.6,2.8,1,3c1.2,0.7,3.9-0.8,5-3
		c0.7-1.4,0.2-2,1-5c0.4-1.5,0.6-2.3,1-3c1.7-3.1,4.9-3.1,5-5c0.1-1.3-1.4-1.9-1-3c0.3-1.1,1.8-1.1,2-2c0.3-1.3-2.2-2.3-2-3
		c0.3-0.8,4.1-1,6,1c0.6,0.7,0.5,1,2,4c1.4,2.8,1.8,3,2,3c0.4-0.1,0.3-1.1,1-3c0.3-0.9,1.1-3,2-3c0.6,0,0.7,1,2,2
		c0.7,0.6,1.8,0.9,2.3,1c0.4-1.9,0.7-4,0.7-6C64,25.4,58.1,16.1,49.4,11.4"/>
</g>
<path class="st1" d="M29.2,66.9c14.8,3,30-5,35.6-19.6C70.3,33,64.6,17,51.9,9.2"/>
<path class="st2" d="M9,57.7C19.4,70.6,37.9,74.4,52.8,66c14.8-8.3,21.1-25.8,15.8-41.3"/>
<path class="st2" d="M64.4,16.3C54.4,1.7,34.7-3,19,5.8C4.9,13.7-1.5,30,2.5,44.9"/>
<path class="st1" d="M44,5.8c-15.5-4.4-32.1,3.6-38,19c-5.3,13.7-0.3,28.9,11.2,37"/>
</svg>
